<svg xmlns="http://www.w3.org/2000/svg" viewBox="0 0 512 512">
  <defs>
    <linearGradient id="grad" x1="0%" y1="0%" x2="100%" y2="100%">
      <stop offset="0%" style="stop-color:#2563eb;stop-opacity:1" />
      <stop offset="100%" style="stop-color:#1d4ed8;stop-opacity:1" />
    </linearGradient>
  </defs>
  <rect width="512" height="512" rx="128" fill="url(#grad)" />
  <path d="M360 256c0-60-40-80-80-90-30-7.5-30-20 0-20 30 0 60 15 60 15v-50s-30-15-60-15c-60 0-90 40-90 90 0 60 40 80 80 90 30 7.5 30 20 0 20-30 0-70-15-70-15v50s40 15 70 15c60 0 90-40 90-90z" fill="white" />
</svg>
